<?xml version="1.0" encoding="UTF-8"?>
<svg version="1.1" xmlns="http://www.w3.org/2000/svg" width="500" height="500">
<path d="M0 0 C-0.66 5.28 -1.32 10.56 -2 16 C-0.63875 15.01 0.7225 14.02 2.125 13 C5.88848057 10.48706179 8.3659591 9.0957969 13 10 C13.99 10.99 13.99 10.99 15 12 C14.625 14.125 14.625 14.125 14 16 C9.94568308 17.15837626 7.78187881 16.83691257 4 15 C4 15.66 4 16.32 4 17 C4.556875 17.185625 5.11375 17.37125 5.6875 17.5625 C9.06754192 19.66360714 10.85140381 22.70665994 13 26 C13.433125 25.21625 13.86625 24.4325 14.3125 23.625 C16 21 16 21 19 19 C25.33333333 18.66666667 25.33333333 18.66666667 28 20 C27.74438677 17.6568787 27.40729228 15.32156597 27 13 C26.01 12.505 26.01 12.505 25 12 C25.020625 12.804375 25.04125 13.60875 25.0625 14.4375 C25 17 25 17 24 18 C21.66702567 18.04092937 19.33294775 18.04241723 17 18 C16.505 16.02 16.505 16.02 16 14 C19.02606148 10.87632363 21.22122478 9.68393436 25.5 9.5625 C29.82617819 9.74996772 32.88192093 10.88192093 36 14 C40.83741602 13.62789108 43.9677302 12.6497773 48 10 C48.66 10 49.32 10 50 10 C50.33 10.99 50.66 11.98 51 13 C51.515625 12.54625 52.03125 12.0925 52.5625 11.625 C55.57300574 9.61799617 58.50927237 8.87268191 62 8 C61.79375 7.05125 61.5875 6.1025 61.375 5.125 C61.25125 4.09375 61.1275 3.0625 61 2 C61.66 1.34 62.32 0.68 63 0 C65.125 0.375 65.125 0.375 67 1 C67.8125 3.1875 67.8125 3.1875 68 6 C65.5625 8.6875 65.5625 8.6875 63 11 C63 11.66 63 12.32 63 13 C67.23142761 11.50655496 69.97660219 10.40010634 72.75 6.8125 C73.86375 5.4203125 73.86375 5.4203125 75 4 C75.99 4 76.98 4 78 4 C77.67 6.97 77.34 9.94 77 13 C78.32 13 79.64 13 81 13 C81 13.99 81 14.98 81 16 C79.68 16 78.36 16 77 16 C77.11465421 18.22972273 77.24214766 20.45878753 77.375 22.6875 C77.47941406 24.54955078 77.47941406 24.54955078 77.5859375 26.44921875 C77.88268057 30.33829368 77.88268057 30.33829368 80 35 C74.72 35 69.44 35 64 35 C64.99 32.03 64.99 32.03 66 29 C66.2392495 25.7985747 66.2392495 25.7985747 66.125 22.625 C66.10695313 21.56539062 66.08890625 20.50578125 66.0703125 19.4140625 C66.04710937 18.61742187 66.02390625 17.82078125 66 17 C65.34 16.67 64.68 16.34 64 16 C63.67 16.99 63.34 17.98 63 19 C60.69 19.33 58.38 19.66 56 20 C55.67 18.35 55.34 16.7 55 15 C51.87802522 16.3089572 51.87802522 16.3089572 50 19 C49.87781745 20.57984876 49.82450395 22.16547906 49.8125 23.75 C49.79832031 24.59046875 49.78414062 25.4309375 49.76953125 26.296875 C50.036586 29.42911041 50.91278704 32.06065745 52 35 C48.75007554 35.05819424 45.50028565 35.09366116 42.25 35.125 C41.32960938 35.14175781 40.40921875 35.15851563 39.4609375 35.17578125 C38.57148438 35.18222656 37.68203125 35.18867188 36.765625 35.1953125 C35.54020996 35.21102295 35.54020996 35.21102295 34.29003906 35.22705078 C31.78112482 34.97829916 30.16604375 34.25700129 28 33 C27.01 33.99 27.01 33.99 26 35 C23.66162109 35.22705078 23.66162109 35.22705078 20.7734375 35.1953125 C19.2265625 35.18564453 19.2265625 35.18564453 17.6484375 35.17578125 C16.02808594 35.15064453 16.02808594 35.15064453 14.375 35.125 C13.28703125 35.11597656 12.1990625 35.10695312 11.078125 35.09765625 C8.38519848 35.07403409 5.69270745 35.04109556 3 35 C3.00942627 34.31365479 3.01885254 33.62730957 3.02856445 32.92016602 C3.035896 32.01967529 3.04322754 31.11918457 3.05078125 30.19140625 C3.06020752 29.29881104 3.06963379 28.40621582 3.0793457 27.48657227 C2.98640403 24.57392331 2.52924676 22.49508682 1 20 C-0.485 19.505 -0.485 19.505 -2 19 C-1.68954268 20.9169986 -1.37655329 22.83358723 -1.0625 24.75 C-0.80146484 26.35101563 -0.80146484 26.35101563 -0.53515625 27.984375 C-0.11295829 30.36347593 0.37202884 32.66915211 1 35 C-5 35 -11 35 -17 35 C-18.27875 35.061875 -19.5575 35.12375 -20.875 35.1875 C-24.67907109 35.20855574 -26.9099227 34.31755797 -30 32 C-30.33 32.99 -30.66 33.98 -31 35 C-35.35992871 35.04945386 -39.71970862 35.08574488 -44.07983398 35.10986328 C-45.56293583 35.11991821 -47.04601788 35.13356404 -48.52905273 35.15087891 C-50.66134531 35.17515006 -52.79337569 35.18648799 -54.92578125 35.1953125 C-56.85031128 35.21102295 -56.85031128 35.21102295 -58.8137207 35.22705078 C-62 35 -62 35 -65 33 C-65.99 33.66 -66.98 34.32 -68 35 C-71.68722891 35.4809429 -73.56074794 35.22917499 -76.875 33.5 C-79.44978331 30.47084317 -79.74545844 28.79349229 -79.484375 24.90625 C-79 23 -79 23 -76.875 20.5 C-73.58917682 18.78565747 -71.65546065 18.59383771 -68 19 C-67.34 19.33 -66.68 19.66 -66 20 C-65.7497843 17.08365871 -65.7497843 17.08365871 -66 14 C-66.99 13.34 -67.98 12.68 -69 12 C-68.979375 12.804375 -68.95875 13.60875 -68.9375 14.4375 C-69 17 -69 17 -70 18 C-71.99958364 18.04080783 -74.00045254 18.04254356 -76 18 C-76.33 16.35 -76.66 14.7 -77 13 C-73.81641663 10.1618054 -71.73928226 9.59006086 -67.5 9.625 C-66.09234375 9.61339844 -66.09234375 9.61339844 -64.65625 9.6015625 C-61.63683226 10.05447516 -60.25297982 10.99144724 -58 13 C-57.38125 12.690625 -56.7625 12.38125 -56.125 12.0625 C-52.71858948 10.35929474 -50.83377913 9.88026564 -46.9921875 9.90234375 C-46.00605469 9.90556641 -45.01992187 9.90878906 -44.00390625 9.91210938 C-42.97136719 9.92048828 -41.93882812 9.92886719 -40.875 9.9375 C-39.31458984 9.94426758 -39.31458984 9.94426758 -37.72265625 9.95117188 C-35.14838038 9.96298048 -32.57421854 9.97944925 -30 10 C-30.33 10.99 -30.66 11.98 -31 13 C-30.071875 12.2575 -30.071875 12.2575 -29.125 11.5 C-24.79219521 9.4202537 -20.73868587 9.40670112 -16 10 C-13.69140625 11.01953125 -13.69140625 11.01953125 -12 12 C-12.57584432 9.61435923 -13.22227595 7.33317216 -14 5 C-13.38511719 4.80664062 -12.77023438 4.61328125 -12.13671875 4.4140625 C-11.32847656 4.15367187 -10.52023438 3.89328125 -9.6875 3.625 C-8.48673828 3.24214844 -8.48673828 3.24214844 -7.26171875 2.8515625 C-4.5837389 1.84327302 -2.90042778 0 0 0 Z " fill="#D3B7CA" transform="translate(246,219)"/>
<path d="M0 0 C1.40765625 -0.01160156 1.40765625 -0.01160156 2.84375 -0.0234375 C5.86316774 0.42947516 7.24702018 1.36644724 9.5 3.375 C10.11875 3.065625 10.7375 2.75625 11.375 2.4375 C14.78141052 0.73429474 16.66622087 0.25526564 20.5078125 0.27734375 C21.49394531 0.28056641 22.48007813 0.28378906 23.49609375 0.28710938 C24.52863281 0.29548828 25.56117188 0.30386719 26.625 0.3125 C28.18541016 0.31926758 28.18541016 0.31926758 29.77734375 0.32617188 C32.35161962 0.33798048 34.92578146 0.35444925 37.5 0.375 C37.17 1.365 36.84 2.355 36.5 3.375 C37.221875 2.88 37.94375 2.385 38.6875 1.875 C41.70359982 0.26641343 43.15293664 -0.2415643 46.5 0.375 C49.2489728 2.74480414 49.48650259 4.24902413 49.875 7.875 C49.49007552 11.46762844 48.95622327 12.81643409 46.5 15.375 C49.96941546 14.91677532 53.17395049 14.48368317 56.5 13.375 C56.335 14.468125 56.17 15.56125 56 16.6875 C55.43281816 20.25025873 55.43281816 20.25025873 55.5 23.375 C51.19049162 25.52975419 47.23365653 26.0335127 42.5 25.375 C39.5 23.875 39.5 23.875 37.5 22.375 C37.005 23.86 37.005 23.86 36.5 25.375 C32.14007129 25.42445386 27.78029138 25.46074488 23.42016602 25.48486328 C21.93706417 25.49491821 20.45398212 25.50856404 18.97094727 25.52587891 C16.83865469 25.55015006 14.70662431 25.56148799 12.57421875 25.5703125 C10.64968872 25.58602295 10.64968872 25.58602295 8.6862793 25.60205078 C5.5 25.375 5.5 25.375 2.5 23.375 C1.51 24.035 0.52 24.695 -0.5 25.375 C-4.18722891 25.8559429 -6.06074794 25.60417499 -9.375 23.875 C-11.94978331 20.84584317 -12.24545844 19.16849229 -11.984375 15.28125 C-11.5 13.375 -11.5 13.375 -9.375 10.875 C-6.08917682 9.16065747 -4.15546065 8.96883771 -0.5 9.375 C0.16 9.705 0.82 10.035 1.5 10.375 C1.7502157 7.45865871 1.7502157 7.45865871 1.5 4.375 C0.51 3.715 -0.48 3.055 -1.5 2.375 C-1.479375 3.179375 -1.45875 3.98375 -1.4375 4.8125 C-1.5 7.375 -1.5 7.375 -2.5 8.375 C-4.49958364 8.41580783 -6.50045254 8.41754356 -8.5 8.375 C-8.83 6.725 -9.16 5.075 -9.5 3.375 C-6.31641663 0.5368054 -4.23928226 -0.03493914 0 0 Z " fill="#D2B6CA" transform="translate(178.5,228.625)"/>
<path d="M0 0 C0.66 0 1.32 0 2 0 C1.5049728 7.59041706 -1.82367419 13.73551129 -6 20 C-6.99 19.67 -7.98 19.34 -9 19 C-9 15.04 -9 11.08 -9 7 C-7.576875 6.9071875 -7.576875 6.9071875 -6.125 6.8125 C-5.09375 6.544375 -4.0625 6.27625 -3 6 C-1.61141128 3.57114212 -1.61141128 3.57114212 -1 1 C-0.67 0.67 -0.34 0.34 0 0 Z " fill="#FCFBFC" transform="translate(200,231)"/>
<path d="M0 0 C0.99 0 1.98 0 3 0 C4.50934217 3.01868434 4.17510672 5.67297229 4 9 C3.01 10.485 3.01 10.485 2 12 C1.01 11.67 0.02 11.34 -1 11 C-2.50662097 7.98675805 -2.17770373 5.31713623 -2 2 C-1.34 1.34 -0.68 0.68 0 0 Z " fill="#FDFCFC" transform="translate(224,231)"/>
<path d="M0 0 C0.1875 2.375 0.1875 2.375 0 5 C-3.46998729 7.31332486 -4.92509248 7.33957563 -9 7 C-9.99 6.34 -10.98 5.68 -12 5 C-12 4.34 -12 3.68 -12 3 C-11.37351563 2.86722656 -10.74703125 2.73445312 -10.1015625 2.59765625 C-9.28429687 2.42105469 -8.46703125 2.24445313 -7.625 2.0625 C-6.81289062 1.88847656 -6.00078125 1.71445313 -5.1640625 1.53515625 C-3.41307967 1.10215147 -1.75653031 0 0 0 Z " fill="#FCFAFB" transform="translate(235,242)"/>
<path d="M0 0 C1.32 0 2.64 0 4 0 C4.625 2.875 4.625 2.875 5 6 C4.34 6.66 3.68 7.32 3 8 C0.875 7.625 0.875 7.625 -1 7 C-1.625 4.625 -1.625 4.625 -2 2 C-1.34 1.34 -0.68 0.68 0 0 Z " fill="#FBF9FB" transform="translate(270,242)"/>
<path d="M0 0 C1.67542976 0.28604898 3.34385343 0.61781233 5 1 C4.67 3.31 4.34 5.62 4 8 C2.35 7.67 0.7 7.34 -1 7 C-1.04254356 5.00045254 -1.04080783 2.99958364 -1 1 C-0.67 0.67 -0.34 0.34 0 0 Z " fill="#FDFBFC" transform="translate(176,242)"/>
<path d="M0 0 C2.58823529 5.17647059 2.58823529 5.17647059 2 9 C0.1875 10.875 0.1875 10.875 -2 12 C-2.99 11.67 -3.98 11.34 -5 11 C-3.35 7.37 -1.7 3.74 0 0 Z " fill="#FBF9FA" transform="translate(210,240)"/>
</svg>
