<svg width="38" height="5" viewBox="0 0 36 8" fill="none" xmlns="http://www.w3.org/2000/svg">
<path d="M4.812 7.332C4.932 7.428 4.896 7.584 4.764 7.584H3.54C2.892 7.584 2.64 7.008 2.64 7.008C2.376 7.356 1.944 7.584 1.464 7.584C0.66 7.584 0 6.948 0 6.168C0 5.388 0.66 4.752 1.464 4.752C1.944 4.752 2.376 4.98 2.64 5.328V4.968C2.64 4.272 2.376 3.48 1.944 3.48C1.764 3.48 1.764 3.768 1.908 4.08C2.16 4.668 0.36 4.908 0.36 4.212C0.36 3.696 0.96 3.144 2.064 3.144C3.348 3.144 4.32 4.032 4.32 5.328V6.312C4.32 6.756 4.392 7.02 4.812 7.332ZM1.992 6.936C2.328 6.936 2.592 6.588 2.592 6.168C2.592 5.748 2.328 5.4 1.992 5.4C1.668 5.4 1.404 5.748 1.404 6.168C1.404 6.588 1.668 6.936 1.992 6.936ZM9.41297 3.144C9.66497 3.144 9.56897 3.336 9.41297 3.444C8.74097 3.888 8.22497 6.408 7.50497 7.248H7.70897C8.45297 7.248 8.77697 6.564 9.08897 6.156C9.18497 6.036 9.34097 6.072 9.34097 6.204V7.248C9.34097 7.488 9.23297 7.584 9.00497 7.584H5.35697C5.10497 7.584 5.11697 7.392 5.28497 7.284C5.81297 6.948 7.43297 3.9 7.03697 3.528C6.85697 3.36 6.30497 3.684 6.37697 4.236C6.48497 4.992 4.45697 5.1 4.84097 4.02C5.02097 3.492 5.76497 3.144 6.52097 3.144H9.41297ZM13.9048 6.204C14.0248 6.048 14.2288 6.252 14.1568 6.384C13.7608 7.092 12.9568 7.584 12.0328 7.584C10.7008 7.584 9.63281 6.588 9.63281 5.364C9.63281 4.14 10.6888 3.144 12.1288 3.144C13.0648 3.144 14.0728 3.78 14.0728 4.572C14.0728 5.352 13.3048 5.988 12.3688 5.988C12.0568 5.988 11.7808 5.916 11.5288 5.808C11.6488 6.204 11.9128 6.54 12.3928 6.684C12.8368 6.804 13.5688 6.648 13.9048 6.204ZM12.0688 3.48C11.8768 3.48 11.4808 3.852 11.4808 4.62C11.4808 5.256 11.7808 5.652 12.0688 5.652C12.3928 5.652 12.6208 5.16 12.6208 4.572C12.6208 3.972 12.3928 3.48 12.0688 3.48ZM20.1258 7.284C20.2818 7.38 20.3418 7.584 20.0898 7.584H17.5698C17.4378 7.584 17.3418 7.428 17.4378 7.332C17.7498 7.02 17.7138 6.756 17.6058 6.312C17.4378 5.664 17.1978 4.548 16.5738 4.704C16.5978 6.012 16.7898 7.092 17.0538 7.284C17.1738 7.38 17.1858 7.584 16.9218 7.584H14.5458C14.4258 7.584 14.3778 7.428 14.4978 7.332C14.9178 7.02 14.9898 6.756 14.9898 6.312V3.612C14.9898 3.168 14.9178 2.904 14.4978 2.592C14.3778 2.496 14.4258 2.352 14.5458 2.352C15.6978 2.352 16.2258 1.56 16.6698 1.476C16.9218 1.416 16.8138 1.62 16.7898 1.776C16.6338 2.604 16.5738 3.516 16.5738 4.356C17.1858 4.188 18.2058 2.676 19.2018 3.3C20.0178 3.804 19.1658 4.764 18.2898 4.212C18.0138 4.032 17.7738 4.104 17.5338 4.236C18.6138 4.524 18.8538 6.48 20.1258 7.284ZM25.0151 7.332C25.1351 7.428 25.0991 7.584 24.9671 7.584H23.7431C23.0951 7.584 22.8431 7.008 22.8431 7.008C22.5791 7.356 22.1471 7.584 21.6671 7.584C20.8631 7.584 20.2031 6.948 20.2031 6.168C20.2031 5.388 20.8631 4.752 21.6671 4.752C22.1471 4.752 22.5791 4.98 22.8431 5.328V4.968C22.8431 4.272 22.5791 3.48 22.1471 3.48C21.9671 3.48 21.9671 3.768 22.1111 4.08C22.3631 4.668 20.5631 4.908 20.5631 4.212C20.5631 3.696 21.1631 3.144 22.2671 3.144C23.5511 3.144 24.5231 4.032 24.5231 5.328V6.312C24.5231 6.756 24.5951 7.02 25.0151 7.332ZM22.1951 6.936C22.5311 6.936 22.7951 6.588 22.7951 6.168C22.7951 5.748 22.5311 5.4 22.1951 5.4C21.8711 5.4 21.6071 5.748 21.6071 6.168C21.6071 6.588 21.8711 6.936 22.1951 6.936ZM28.9957 3.144C29.4637 3.144 30.0517 3.396 30.1477 3.9C30.3757 5.04 28.3597 5.412 28.4917 4.476C28.5397 4.212 28.6477 3.972 28.4317 3.972C28.1437 3.972 27.7357 4.416 27.5077 4.848C27.4237 6.18 27.5917 7.032 27.9277 7.284C28.0597 7.38 28.0597 7.584 27.8077 7.584H25.4677C25.3477 7.584 25.2997 7.428 25.4197 7.332C25.8397 7.02 25.9117 6.756 25.9117 6.312V5.304C25.9117 4.86 25.8397 4.596 25.4197 4.272C25.2997 4.176 25.3477 4.032 25.4677 4.032C26.6197 4.032 27.0997 3.252 27.5557 3.156C27.8077 3.108 27.6877 3.3 27.6637 3.456L27.5677 4.236C27.8437 3.828 28.3957 3.144 28.9957 3.144ZM32.331 0.564C32.259 0.844 32.167 1.148 32.055 1.476C31.943 1.804 31.819 2.132 31.683 2.46C31.555 2.78 31.427 3.084 31.299 3.372H30.519C30.575 3.148 30.631 2.908 30.687 2.652C30.751 2.396 30.807 2.14 30.855 1.884C30.911 1.62 30.959 1.364 30.999 1.116C31.047 0.868 31.087 0.64 31.119 0.431999H32.247L32.331 0.564ZM35.4247 3.672C35.5807 3.672 35.6287 3.804 35.6287 3.96C35.6287 4.116 35.5807 4.248 35.4247 4.248H34.8367C34.7647 5.796 34.9807 7.032 35.3047 7.284C35.4247 7.38 35.4367 7.584 35.1727 7.584H32.7487C32.5927 7.584 32.5927 7.392 32.7127 7.284C33.1087 6.912 33.0967 6.012 33.0967 5.496C33.0967 5.184 33.1087 4.644 32.9407 4.248H32.6767C32.5207 4.248 32.4727 4.116 32.4727 3.96C32.4727 3.804 32.5207 3.672 32.6767 3.672H32.7487C33.9007 3.672 34.1527 2.4 34.7167 2.196C34.9567 2.1 35.0647 2.292 35.0407 2.448C34.9687 2.868 34.9087 3.276 34.8727 3.672H35.4247Z" fill="#B66FA0"/>
</svg>
